<svg width="34" height="34" viewBox="0 0 34 34" fill="none" xmlns="http://www.w3.org/2000/svg">
<path d="M34 2.5V31.5C34 32.163 33.7366 32.7989 33.2678 33.2678C32.7989 33.7366 32.163 34 31.5 34H2.5C1.83696 34 1.20107 33.7366 0.732233 33.2678C0.263392 32.7989 0 32.163 0 31.5L0 2.5C0 1.83696 0.263392 1.20107 0.732233 0.732233C1.20107 0.263392 1.83696 0 2.5 0L31.5 0C32.163 0 32.7989 0.263392 33.2678 0.732233C33.7366 1.20107 34 1.83696 34 2.5ZM10 13H5V29H10V13ZM10.45 7.5C10.4526 7.12179 10.3807 6.74677 10.2384 6.39634C10.0961 6.04591 9.88621 5.72695 9.62063 5.45765C9.35505 5.18836 9.03903 4.97402 8.69062 4.82686C8.3422 4.67971 7.96821 4.60262 7.59 4.6H7.5C6.73087 4.6 5.99325 4.90553 5.44939 5.44939C4.90553 5.99325 4.6 6.73087 4.6 7.5C4.6 8.26913 4.90553 9.00675 5.44939 9.55061C5.99325 10.0945 6.73087 10.4 7.5 10.4C7.87824 10.4093 8.2546 10.344 8.60758 10.2078C8.96057 10.0716 9.28326 9.86717 9.55721 9.60622C9.83117 9.34527 10.051 9.03289 10.2042 8.68694C10.3574 8.34099 10.4409 7.96824 10.45 7.59V7.5ZM29 19.28C29 14.47 25.94 12.6 22.9 12.6C21.9046 12.5502 20.9136 12.7622 20.0258 13.2149C19.1379 13.6676 18.3843 14.3451 17.84 15.18H17.7V13H13V29H18V20.49C17.9277 19.6184 18.2023 18.7535 18.764 18.0832C19.3257 17.4129 20.1292 16.9913 21 16.91H21.19C22.78 16.91 23.96 17.91 23.96 20.43V29H28.96L29 19.28Z" fill="white"/>
</svg>
